<svg xmlns="http://www.w3.org/2000/svg" viewBox="0 0 5240 800" width="5240" height="800">
<path d="M3748,613L3748,630L3753,635L4034,635L4039,630L4039,613L4034,608L3753,608ZM160,449L160,470L164,474L164,482L168,486L168,494L172,498L172,502L176,506L176,510L180,514L180,518L184,522L184,526L192,534L192,538L204,550L204,554L241,591L246,592L265,607L268,607L289,619L296,619L309,627L320,627L333,635L356,635L361,639L382,639L387,634L386,612L383,612L378,608L363,608L358,604L343,604L338,600L327,600L314,592L307,592L302,588L289,583L282,576L277,575L270,568L265,567L227,529L227,525L219,517L219,513L211,505L211,501L203,489L203,481L195,469L195,457L191,453L190,448ZM3748,393L3748,406L3753,411L3995,410L3995,406L3999,402L3999,393L3995,389L3994,384L3752,385L3752,389ZM1081,200L1076,205L1076,229L1072,233L1072,269L1068,273L1068,301L1064,305L1064,345L1060,349L1060,390L1065,395L1212,395L1217,399L1228,399L1233,403L1244,403L1249,407L1256,407L1261,411L1274,416L1281,423L1286,424L1308,446L1308,450L1312,454L1312,462L1316,466L1316,474L1320,478L1320,525L1316,529L1316,537L1312,541L1312,549L1308,553L1308,557L1278,587L1273,588L1252,600L1245,600L1240,604L1229,604L1224,608L1155,608L1150,604L1135,604L1130,600L1123,600L1118,596L1111,596L1106,592L1099,592L1094,588L1081,583L1074,576L1069,575L1058,564L1053,563L1045,556L1042,559L1037,560L1032,565L1032,569L1027,576L1032,582L1032,586L1037,591L1042,592L1053,603L1074,612L1081,619L1088,619L1101,627L1112,627L1117,631L1124,631L1129,635L1152,635L1157,639L1226,639L1231,635L1250,635L1263,627L1274,627L1277,624L1290,619L1297,612L1302,611L1335,578L1335,574L1339,570L1339,566L1347,554L1347,542L1351,538L1351,526L1355,522L1355,477L1351,473L1351,465L1347,461L1347,449L1343,445L1343,441L1339,437L1339,433L1335,429L1335,425L1306,396L1301,395L1294,388L1285,387L1278,380L1271,380L1266,376L1259,376L1254,372L1243,372L1238,368L1211,368L1206,364L1103,364L1093,356L1093,351L1095,350L1095,318L1099,314L1099,282L1103,278L1103,246L1107,242L1107,210L1111,205L1106,200ZM4248,169L4249,195L4252,195L4257,199L4432,199L4445,207L4456,207L4461,211L4482,220L4489,227L4494,228L4512,246L4512,250L4520,258L4520,262L4528,274L4528,282L4532,286L4532,302L4536,306L4536,345L4532,349L4532,365L4528,369L4528,377L4524,381L4524,385L4520,389L4520,393L4512,401L4512,405L4502,415L4497,416L4482,431L4473,432L4464,440L4457,440L4452,444L4445,444L4440,448L4425,448L4420,452L4257,452L4248,457L4249,483L4429,483L4432,486L4432,490L4444,502L4444,506L4452,514L4452,518L4464,530L4464,534L4476,546L4476,550L4484,558L4484,562L4492,570L4492,574L4504,586L4504,590L4512,598L4512,602L4524,614L4524,618L4532,626L4533,631L4536,631L4541,635L4571,634L4572,631L4567,625L4567,621L4563,617L4563,613L4555,605L4555,601L4539,585L4539,581L4531,573L4531,569L4519,557L4519,553L4511,545L4511,541L4499,529L4499,525L4491,517L4491,513L4479,501L4479,497L4467,485L4467,474L4473,468L4482,467L4489,460L4510,451L4547,414L4547,410L4551,406L4551,402L4555,398L4555,394L4563,382L4563,370L4567,366L4567,346L4571,342L4571,305L4567,301L4567,281L4563,277L4563,269L4555,257L4555,249L4547,241L4547,237L4539,229L4539,225L4522,208L4517,207L4498,192L4495,192L4474,180L4467,180L4462,176L4455,176L4450,172L4431,172L4426,168L4407,168L4402,164L4257,164ZM3748,173L3748,190L3757,199L4018,199L4027,194L4026,168L4023,168L4018,164L3757,164ZM3272,169L3273,635L3575,634L3575,613L3570,608L3319,608L3307,601L3307,177L3303,173L3302,168L3299,168L3294,164L3281,164ZM2837,164L2832,169L2832,173L2828,177L2828,630L2833,635L3131,634L3131,630L3136,623L3131,617L3131,613L3126,608L2875,608L2863,597L2863,173L2854,164ZM2449,164L2436,177L2436,181L2432,185L2432,193L2428,197L2428,201L2424,205L2424,209L2416,221L2416,229L2408,237L2408,245L2404,249L2404,253L2400,257L2400,261L2396,265L2396,269L2388,281L2388,289L2384,293L2384,297L2380,301L2380,305L2376,309L2376,313L2372,317L2372,321L2364,333L2364,341L2360,345L2360,349L2356,353L2356,357L2352,361L2352,365L2344,377L2344,385L2340,389L2340,393L2336,397L2336,401L2332,405L2332,409L2328,413L2328,417L2320,429L2320,437L2316,441L2316,445L2312,449L2312,453L2308,457L2308,461L2300,473L2300,481L2292,493L2292,498L2297,503L2588,503L2604,518L2604,526L2608,530L2608,534L2612,538L2612,542L2616,546L2616,550L2624,562L2624,570L2628,574L2628,578L2632,582L2632,586L2640,598L2640,606L2648,614L2648,622L2652,626L2652,630L2657,635L2686,635L2691,629L2687,625L2687,621L2683,617L2683,613L2679,609L2679,605L2671,593L2671,585L2667,581L2667,577L2663,573L2663,569L2655,557L2655,549L2647,541L2647,533L2639,525L2639,517L2635,513L2635,509L2627,497L2627,489L2619,481L2618,476L2347,476L2341,472L2341,467L2344,464L2343,458L2347,454L2347,450L2355,438L2355,430L2359,426L2359,422L2363,418L2363,414L2371,402L2371,394L2379,386L2379,378L2383,374L2383,370L2391,358L2391,350L2399,342L2399,334L2407,322L2407,314L2415,306L2415,298L2419,294L2419,290L2423,286L2423,282L2431,270L2431,262L2435,258L2435,254L2439,250L2439,246L2443,242L2443,238L2451,226L2451,218L2459,210L2459,202L2467,190L2467,182L2471,178L2471,169L2466,164ZM1861,172L1856,176L1849,176L1844,180L1837,180L1834,183L1829,184L1808,196L1805,196L1798,203L1793,204L1782,215L1777,216L1740,253L1740,257L1728,269L1728,273L1724,277L1724,281L1720,285L1720,289L1716,293L1716,297L1708,309L1708,317L1704,321L1704,329L1700,333L1700,345L1696,349L1696,373L1692,377L1692,430L1696,434L1696,454L1700,458L1700,470L1704,474L1704,486L1708,490L1708,494L1712,498L1712,502L1716,506L1716,510L1720,514L1720,518L1724,522L1724,526L1728,530L1728,534L1740,546L1740,550L1781,591L1786,592L1805,607L1808,607L1829,619L1836,619L1849,627L1860,627L1873,635L1896,635L1901,639L1974,639L1979,635L2002,635L2007,631L2014,631L2019,627L2030,627L2043,619L2050,619L2057,612L2078,603L2089,592L2094,591L2103,582L2103,409L2098,404L2077,404L2072,409L2072,561L2068,565L2068,569L2062,575L2057,576L2050,583L2041,584L2032,592L2025,592L2012,600L2001,600L1996,604L1981,604L1976,608L1903,608L1898,604L1887,604L1882,600L1871,600L1858,592L1851,592L1838,584L1831,584L1822,576L1817,575L1806,564L1801,563L1767,529L1767,525L1759,517L1759,513L1751,505L1751,501L1747,497L1747,493L1739,481L1739,473L1735,469L1735,457L1731,453L1731,441L1727,437L1727,366L1731,362L1731,346L1735,342L1735,334L1739,330L1739,322L1743,318L1743,314L1747,310L1747,306L1751,302L1751,298L1759,290L1759,286L1767,278L1767,274L1805,236L1810,235L1817,228L1822,227L1825,224L1830,223L1859,207L1870,207L1883,199L1906,199L1911,195L1968,195L1973,199L2000,199L2013,207L2020,207L2033,215L2042,216L2049,223L2054,224L2061,231L2066,232L2077,243L2095,242L2095,238L2098,235L2103,234L2102,220L2097,219L2082,204L2077,203L2070,196L2067,196L2038,180L2031,180L2018,172L2003,172L1998,168L1991,168L1986,164L1893,164L1888,168L1881,168L1876,172ZM866,164L849,164L844,169L844,181L840,185L840,198L844,202L844,209L840,213L840,222L844,226L844,245L840,249L840,586L844,590L844,601L840,605L844,610L844,613L839,620L844,626L845,635L875,634L874,168L871,168ZM288,185L288,189L284,193L284,214L289,219L294,219L299,215L306,215L315,207L326,207L339,199L362,199L367,195L424,195L429,199L452,199L465,207L476,207L481,211L484,211L489,215L510,224L517,231L522,232L533,243L538,244L560,266L560,270L572,282L572,286L576,290L576,294L584,302L584,306L588,310L588,318L596,326L596,338L600,342L600,350L604,354L604,386L608,390L608,413L604,417L604,438L608,442L609,447L626,447L629,444L634,443L639,438L639,353L635,349L635,341L631,337L631,325L627,321L627,313L623,309L623,305L619,301L619,297L615,293L615,289L611,285L611,281L607,277L607,273L599,265L599,261L587,249L586,244L582,244L579,241L579,237L562,220L557,219L546,208L541,207L522,192L513,191L506,184L499,184L494,180L487,180L474,172L459,172L454,168L447,168L442,164L353,164L348,168L337,168L332,172L321,172L316,176L309,176L304,180L297,180ZM5062,160L5056,164L5045,164L5038,171L5032,173L5032,177L5028,181L5028,185L5020,193L5020,197L5016,201L5016,205L5012,209L5012,213L5000,225L5000,229L4996,233L4996,237L4988,245L4988,249L4984,253L4984,257L4976,265L4976,269L4968,277L4968,281L4964,285L4964,289L4956,297L4956,301L4952,305L4952,309L4948,313L4948,317L4940,325L4940,329L4932,337L4932,341L4928,345L4928,349L4920,357L4920,361L4912,369L4912,373L4908,377L4908,381L4904,385L4904,389L4896,397L4896,401L4888,409L4888,413L4884,417L4884,421L4876,429L4876,433L4868,441L4868,445L4864,449L4864,453L4860,457L4860,461L4852,469L4853,635L4883,634L4883,618L4888,611L4883,605L4883,522L4887,518L4887,509L4883,505L4883,490L4887,487L4884,482L4887,478L4887,470L4895,462L4895,458L4899,454L4899,450L4903,446L4903,442L4911,434L4911,430L4919,422L4919,418L4923,414L4923,410L4931,402L4931,398L4939,390L4939,386L4943,382L4943,378L4947,374L4947,370L4955,362L4955,358L4959,354L4959,350L4967,342L4967,338L4975,330L4975,326L4979,322L4979,318L4987,310L4987,306L4995,298L4995,294L4999,290L4999,286L5003,282L5003,278L5011,270L5011,266L5019,258L5019,254L5023,250L5023,246L5031,238L5031,234L5049,216L5055,214L5055,206L5067,194L5067,190L5079,177Z" fill="#111111" fill-rule="evenodd"/>
</svg>